<?xml version="1.0" encoding="UTF-8" ?>
<!DOCTYPE svg PUBLIC "-//W3C//DTD SVG 1.1//EN" "http://www.w3.org/Graphics/SVG/1.1/DTD/svg11.dtd">
<svg width="631px" height="642px" viewBox="0 0 631 642" version="1.1" xmlns="http://www.w3.org/2000/svg">
<g id="#ffffffff">
<path fill="#ffffff" opacity="1.00" d=" M 394.23 0.00 L 407.30 0.00 C 424.15 0.68 441.06 3.69 456.57 10.50 C 478.19 19.76 496.37 35.91 509.83 55.04 C 520.67 70.02 528.04 87.06 536.53 103.40 C 556.72 143.23 577.48 182.79 598.58 222.15 C 605.71 235.59 613.56 248.71 619.06 262.94 C 626.87 282.59 631.10 303.77 630.48 324.95 C 629.94 346.80 624.28 368.34 615.19 388.15 C 609.11 401.15 601.85 413.55 595.19 426.26 C 574.05 465.64 553.38 505.27 533.21 545.16 C 526.52 558.32 520.31 571.80 511.90 583.99 C 500.61 600.70 486.04 615.44 468.47 625.51 C 450.18 636.23 429.02 641.12 407.98 642.00 L 398.21 642.00 C 345.15 640.84 292.07 640.94 239.01 641.82 C 213.17 643.07 186.43 639.21 163.72 626.22 C 146.85 616.82 132.65 603.10 121.47 587.45 C 113.09 575.98 106.76 563.24 100.46 550.57 C 77.35 504.69 53.54 459.16 29.14 413.95 C 23.28 402.98 17.08 392.14 12.48 380.55 C 4.69 361.40 0.26 340.79 0.42 320.07 C 0.51 292.90 8.62 266.22 21.43 242.41 C 49.42 190.71 76.75 138.66 103.14 86.12 C 116.06 58.73 134.66 32.82 161.20 17.24 C 181.51 5.06 205.42 -0.18 228.96 0.06 C 284.05 0.90 339.16 1.36 394.23 0.00 Z" />
</g>
</svg>
